<svg xmlns="http://www.w3.org/2000/svg" version="1.1" xmlns:xlink="http://www.w3.org/1999/xlink" xmlns:svgjs="http://svgjs.dev/svgjs" width="128" height="128" viewBox="0 0 128 128"><g transform="matrix(0.44782608695652176,0,0,0.44782608695652176,35.339226276730436,12.5)"><svg viewBox="0 0 125 225" data-background-color="#ffffff" preserveAspectRatio="xMidYMid meet" height="230" width="128" xmlns="http://www.w3.org/2000/svg" xmlns:xlink="http://www.w3.org/1999/xlink"><g id="tight-bounds" transform="matrix(1,0,0,1,-0.00020899999999812735,0)"><svg viewBox="0 0 125 225" height="225" width="125"><g><svg></svg></g><g><svg viewBox="0 0 125 225" height="225" width="125"><g><path transform="translate(-29.29403,21.95688) scale(1.81951,1.81951)" d="M20.6 59.9l0.8 1-0.4-1.3c-0.1-0.6-0.8 0.1-0.4 0.3M21.5 59.3c0.3 0.5 0.6 1 0.6 1.5 0 0.7 0.6 1 1.1 1.2-0.7-0.8-1.1-3-1.7-2.7M59.9 16.9c1.7 0 3.3-0.2 5.1 0.2 4.4 1.1 8.1 3.3 10.6 6.4l7 11.2c0.3 2.8 0.9 5.9 0.8 9.3 0.7 0 0.6-1 1.4-1.2-0.8 2-1.2 4.5-1.4 7.4-0.5-1.6 0-4 0.1-5.3-0.7 1.1-1.1 0.3-1.1-0.2 0.1-0.8-0.3-0.7-0.6-1-1.1-1-1.8-2.1-2.6-3.8 0.5-1.3 0.6-3.2-1-4.2-0.5-0.3-1.1-0.8-1.4-1.6-0.4-1.1-1.1-2.4-0.9-4.1 0.1-0.5-1.5 1.1-2.4 0.4-3.9-2.7-7.8-5.8-12.5-8.4-2.5 0-4.3-0.9-5.2-2-0.8-1-0.2-2.3 1-2.4 0.7 0 1.5-0.2 2.1 0.2 0.1-0.4 0.5-0.9 1-0.9M50 14.6l0.2 0.1c1 0.2 1.5 1.6 2.6 1.1 0 0.7 0.1 1.4-0.1 1.9-0.3 0.8-1.2 0.8-1.9 0.8-6.7-0.4-10.6 2.4-14.7 4.8-1.1 0.7-2.3 1.2-3.2 2.1-4.3 4-9 7.7-10.1 15.1l-0.9 8.2c-0.1 0.9-1.1 1.8-0.9 2.9l0.7 4.9c-0.7-0.7-1.1 0.2-0.9 0.6 0.1 0.3 0.5 1.3 1.1 0.4 0.8 1.5 1.6 4.4 2.7 5.7 3.4 4 7.8 7.6 11.4 11.2 0.9-0.2 1.6-0.2 1.8-0.8 0.3 0.6-0.3 1.2-0.8 1.3 1.6 1 3.4 1.9 5.8 2.1 3.1 0.2 6 0.7 8.7 1.4 1.4-0.4 2.8-0.6 4.3-0.7 0.5 0 0.8-0.8 1.4-1l0.1-1c0.6 0.9 0.5-0.3 0.1-0.9 0.7 0.6 0.9 1.1 1.2 1.5 0-0.3 0.8-1.4 0.8-0.1l0.2-1.3c0.3-0.2 0.4 1.1 0.7 0.2 0.3-0.9 0.9-0.2 1.5-0.5-0.2 0.4-0.1 1.2 0.6 0.7l0.8-0.7c0.5 1.2 1.3 0.7 1.7 0.5 4.4-2.8 8.8-6.1 13-9.4l-0.1 1.3 0.5-1.6c0.5 0.5 0.9 0.1 1.1-0.2 0.6-1 1.4-2 2.7-2.9-1.6 4.3-3.5 7.7-5.9 10.5l-1 1.2c0 0.7-0.2 1.6-1 1.7-0.4 0.1-1.2-0.2-1.8 0.4-0.3 0.4 0.7 1.2-0.1 0.6-0.7-0.5-1.4 0-2.2 0.2-0.6 0.2 0.4 0.8 0.6 1.2 0.2 0.4 0.4 0.8 0.3 1.3l-1.1-1.2c-1.3 0.7-2.1 2-3.2 3-0.5 0.4-0.3 1.1-0.3 1.7-0.7 0-1.5-0.2-1.9 0.2-0.3 0.4-0.2 1-0.2 1.6-1-0.1-1.1-1.6-2-1.3-0.9 0.2-1.9 0.3-2.7 0.8 0.6 1.2-1 0.5-0.8 0.7-1.5-0.9-2.8-1.6-4.4-1-3.4-1.1-7.6-0.6-10.7-0.2 0-0.5 0.1-1-0.1-1.1-0.2 0.5-0.8 0.3-0.7 0.3-1.9-1.3-3.8-2.1-5.8-3.2-1.8 0.2-3.5-0.7-4-1.2-1.4-1.3-3-0.6-4.3-0.9-2.8-0.7-3.8-3.6-4.1-5.6-0.2-1-1-1.4-1.3-1.3-1.3-4.2-3.3-8-4.9-11.9-0.4-1-0.3-2-0.3-3.1 0.5 0.2 1 0.1 0.9-0.6-0.5-3.3-1.7-5.8-3-8.2 0.7-3.4 0.8-7.4 2.4-10.4 1.4-2.7 4-4.1 5.8-6.4 0.6-0.8 0.6-1.9 1.2-2.6 2-2 4-4.1 6.2-5.9 1-0.8 2.2 0 3.7-0.3 0.5-1.8 2.5-3.4 4.4-2.9 0.8 0.2 2.4-1.9 2.9-2.1 0.8-0.3 0.4 0.8 0.4 1.5 1.9-1.5 4.5-2.3 6.9-3.2" fill="#000000" fill-rule="nonzero" stroke="none" stroke-width="1" stroke-linecap="butt" stroke-linejoin="miter" stroke-miterlimit="10" stroke-dasharray="" stroke-dashoffset="0" font-family="none" font-weight="none" font-size="none" text-anchor="none" style="mix-blend-mode: normal" data-fill-palette-color="tertiary"></path></g><g transform="matrix(1,0,0,1,48.17785,93.66536275520268)"><svg viewBox="0 0 28.6443 37.66927448959464" height="37.66927448959464" width="28.6443"><g><svg viewBox="0 0 28.6443 37.66927448959464" height="37.66927448959464" width="28.6443"><g><svg viewBox="0 0 28.6443 37.66927448959464" height="37.66927448959464" width="28.6443"><g id="textblocktransform"><svg viewBox="0 0 28.6443 37.66927448959464" height="37.66927448959464" width="28.6443" id="textblock"><g><svg viewBox="0 0 28.6443 37.66927448959464" height="37.66927448959464" width="28.6443"><g><svg viewBox="0 0 28.6443 37.66927448959464" height="37.66927448959464" width="28.6443"><g><svg xmlns="http://www.w3.org/2000/svg" xmlns:xlink="http://www.w3.org/1999/xlink" version="1.1" x="0" y="0" viewBox="19.708 10.001 60.83399999999999 80.00099999999999" style="enable-background:new 0 0 100 100;" xml:space="preserve" height="37.66927448959464" width="28.6443" class="icon-icon-0" data-fill-palette-color="accent" id="icon-0"><path d="M77.088 90.001c1.904 0 3.454-1.549 3.454-3.454V13.455c0-1.904-1.55-3.454-3.454-3.454H23.162c-1.904 0-3.454 1.549-3.454 3.454v73.093c0 1.904 1.55 3.454 3.454 3.454H77.088zM38.888 23.335h22.475c2.488 0 4.513-2.024 4.513-4.513v-1.307h6.75v64.306h-45V17.515h6.75v1.307C34.375 21.311 36.399 23.335 38.888 23.335zM63.875 18.822c0 1.386-1.127 2.513-2.513 2.513H38.888c-1.386 0-2.513-1.127-2.513-2.513v-1.307h27.5V18.822zM36.375 15.515v-3.514h27.5v3.514H36.375zM21.708 86.548V13.455c0-0.802 0.652-1.454 1.454-1.454h11.213v3.514h-7.75c-0.553 0-1 0.448-1 1v66.306c0 0.552 0.447 1 1 1h47c0.553 0 1-0.448 1-1V16.515c0-0.552-0.447-1-1-1h-7.75v-3.514h11.213c0.802 0 1.454 0.652 1.454 1.454v73.093c0 0.802-0.652 1.454-1.454 1.454H23.162C22.36 88.001 21.708 87.35 21.708 86.548z" fill="#000000" data-fill-palette-color="accent"></path><path d="M32.812 61.501c0 0.552 0.447 1 1 1h32.625c0.553 0 1-0.448 1-1s-0.447-1-1-1H33.812C33.26 60.501 32.812 60.949 32.812 61.501z" fill="#000000" data-fill-palette-color="accent"></path><path d="M66.438 66.698H33.812c-0.553 0-1 0.448-1 1s0.447 1 1 1h32.625c0.553 0 1-0.448 1-1S66.99 66.698 66.438 66.698z" fill="#000000" data-fill-palette-color="accent"></path><path d="M66.438 72.894H33.812c-0.553 0-1 0.448-1 1s0.447 1 1 1h32.625c0.553 0 1-0.448 1-1S66.99 72.894 66.438 72.894z" fill="#000000" data-fill-palette-color="accent"></path><path d="M50.125 55.634c7.562 0 13.716-6.153 13.716-13.716s-6.153-13.716-13.716-13.716-13.716 6.153-13.716 13.716S42.562 55.634 50.125 55.634zM50.125 30.202c6.46 0 11.716 5.256 11.716 11.716s-5.256 11.716-11.716 11.716-11.716-5.256-11.716-11.716S43.665 30.202 50.125 30.202z" fill="#000000" data-fill-palette-color="accent"></path><path d="M46.806 48.041c0.188 0.188 0.441 0.293 0.707 0.293s0.52-0.105 0.707-0.293l9.325-9.326c0.391-0.391 0.391-1.023 0-1.414s-1.023-0.391-1.414 0l-8.618 8.619-3.394-3.394c-0.391-0.391-1.023-0.391-1.414 0s-0.391 1.023 0 1.414L46.806 48.041z" fill="#000000" data-fill-palette-color="accent"></path></svg></g></svg></g></svg></g></svg></g></svg></g><g></g></svg></g></svg></g></svg></g><defs></defs></svg><rect width="125" height="225" fill="none" stroke="none" visibility="hidden"></rect></g></svg></g></svg>